<svg width="62" height="61" viewBox="0 0 62 61" fill="none" xmlns="http://www.w3.org/2000/svg">
<path d="M47.0417 14.4583H47.0709M16.4167 1.33331H45.5834C53.6375 1.33331 60.1667 7.86249 60.1667 15.9166V45.0833C60.1667 53.1375 53.6375 59.6666 45.5834 59.6666H16.4167C8.36255 59.6666 1.83337 53.1375 1.83337 45.0833V15.9166C1.83337 7.86249 8.36255 1.33331 16.4167 1.33331ZM42.6667 28.6625C43.0267 31.0899 42.612 33.5689 41.4818 35.7471C40.3516 37.9253 38.5634 39.6916 36.3714 40.7949C34.1795 41.8981 31.6955 42.2821 29.2727 41.8923C26.85 41.5024 24.6118 40.3586 22.8767 38.6234C21.1415 36.8882 19.9976 34.65 19.6077 32.2273C19.2179 29.8045 19.6019 27.3205 20.7052 25.1286C21.8084 22.9366 23.5747 21.1484 25.7529 20.0182C27.9311 18.888 30.4102 18.4734 32.8375 18.8333C35.3136 19.2005 37.6059 20.3542 39.3758 22.1242C41.1458 23.8942 42.2995 26.1865 42.6667 28.6625Z" stroke="black" stroke-width="2" stroke-linecap="round" stroke-linejoin="round"/>
</svg>
